<?xml version="1.0" encoding="UTF-8"?>
<svg id="Layer_2" data-name="Layer 2" xmlns="http://www.w3.org/2000/svg" viewBox="0 0 287.64 68.18">
  <defs>
    <style>
      .cls-1 {
        fill: #ed1970;
      }

      .cls-2 {
        fill: #fff;
      }
    </style>
  </defs>
  <g id="Layer_1-2" data-name="Layer 1">
    <g>
      <path class="cls-2" d="M15.05,8.28H0V0h39.17v8.28h-15.12v42.12h-9V8.28Z"/>
      <path class="cls-2" d="M36.65,14.4h9l8.64,24.91,8.64-24.91h9l-12.74,36c-.72,2.11-1.45,4.22-2.2,6.34-.74,2.11-1.72,4.02-2.92,5.72-1.2,1.7-2.75,3.08-4.64,4.14-1.9,1.05-4.36,1.58-7.38,1.58v-7.92c1.2,0,2.31-.34,3.35-1.01,1.03-.67,1.9-1.54,2.59-2.59.7-1.06,1.15-2.22,1.37-3.49.22-1.27.11-2.51-.32-3.71l-12.38-35.06Z"/>
      <path class="cls-2" d="M70.49,0h9.29l11.16,35.93L102.02,0h9.29l-3.17,10.01,8.06,25.92L127.3,0h9.29l-15.91,50.4h-9l-8.14-25.78-8.14,25.78h-9L70.49,0Z"/>
      <path class="cls-2" d="M151.2,13.9c2.78,0,5.33.44,7.63,1.33,2.3.89,4.27,2.15,5.9,3.78,1.63,1.63,2.89,3.6,3.78,5.9.89,2.3,1.33,4.85,1.33,7.63v17.86h-8.64v-3.46c-.86,1.1-2.2,2.06-4,2.88s-4.02,1.22-6.66,1.22-4.99-.44-7.2-1.33-4.1-2.15-5.69-3.78-2.82-3.6-3.71-5.9c-.89-2.3-1.33-4.85-1.33-7.63s.44-5.32,1.33-7.6c.89-2.28,2.15-4.22,3.78-5.83,1.63-1.61,3.59-2.85,5.87-3.74,2.28-.89,4.81-1.33,7.6-1.33ZM161.21,32.47c0-3.36-.9-5.98-2.7-7.85s-4.21-2.81-7.24-2.81-5.45.94-7.27,2.81c-1.83,1.87-2.74,4.49-2.74,7.85s.91,5.98,2.74,7.85c1.82,1.87,4.25,2.81,7.27,2.81s5.44-.94,7.24-2.81,2.7-4.49,2.7-7.85Z"/>
      <path class="cls-2" d="M174.17,0h8.64v50.4h-8.64V0Z"/>
      <path class="cls-2" d="M187.13,0h8.64v36.5l16.27-22.1h10.3l-13.32,18,13.03,18h-10.22l-7.92-11.02-8.14,11.02h-8.64V0Z"/>
      <path class="cls-2" d="M239.18,43.13c3.65,0,6.36-1.3,8.14-3.89h9.43c-1.2,3.65-3.32,6.53-6.37,8.64-3.05,2.11-6.76,3.17-11.12,3.17-2.78,0-5.33-.44-7.63-1.33s-4.27-2.15-5.9-3.78-2.89-3.6-3.78-5.9c-.89-2.3-1.33-4.85-1.33-7.63s.44-5.32,1.33-7.6c.89-2.28,2.15-4.22,3.78-5.83,1.63-1.61,3.6-2.85,5.9-3.74,2.3-.89,4.85-1.33,7.63-1.33s5.32.44,7.6,1.33c2.28.89,4.24,2.14,5.87,3.74,1.63,1.61,2.89,3.55,3.78,5.83.89,2.28,1.33,4.81,1.33,7.6,0,.53-.01,1.02-.04,1.48-.02.46-.06.92-.11,1.4h-28.15c.48,2.5,1.56,4.43,3.24,5.8,1.68,1.37,3.82,2.05,6.41,2.05ZM248.26,27.36c-.77-1.78-1.93-3.14-3.49-4.1-1.56-.96-3.42-1.44-5.58-1.44s-4.01.48-5.54,1.44c-1.54.96-2.69,2.33-3.46,4.1h18.07Z"/>
      <path class="cls-2" d="M261.14,30.24c0-5.47,1.61-9.59,4.82-12.35,3.21-2.76,7.56-4.14,13.03-4.14v7.92c-2.88,0-5.14.71-6.77,2.12-1.63,1.42-2.45,3.56-2.45,6.44v20.16h-8.64v-20.16Z"/>
    </g>
    <circle class="cls-1" cx="282.67" cy="45.42" r="4.97"/>
  </g>
</svg>